<svg width="55" height="32" viewBox="0 0 55 32" fill="none" xmlns="http://www.w3.org/2000/svg">
<path fill-rule="evenodd" clip-rule="evenodd" d="M4.16012 24.5725L6.68362 28.2319H4.33295C1.93996 28.2319 0 26.2871 0 23.8885V8.14382H3.24971V22.8027C3.24971 23.5328 3.60911 24.1785 4.16012 24.5725Z" fill="#9011FF"/>
<path fill-rule="evenodd" clip-rule="evenodd" d="M11.9156 28.0951C13.7844 27.6132 15.1653 25.9123 15.1653 23.8885V4.34337C15.1653 1.94476 13.2254 0 10.8324 0H4.33295C1.93996 0 0 1.94476 0 4.34337V5.97213H3.24971V5.42921C3.24971 4.22991 4.21963 3.25753 5.41618 3.25753H9.74913C10.9457 3.25753 11.9156 4.22991 11.9156 5.42921V22.8027C11.9156 24.002 10.9457 24.9744 9.74913 24.9744H7.07106L11.9156 32V28.0951Z" fill="#9011FF"/>
<path d="M29.0437 10.7358H31.1929V28.0051H29.3557L29.2864 24.9821C28.4198 27.1711 26.548 28.3525 23.9482 28.3525C20.6552 28.3525 18.9566 26.4067 18.9566 22.654V10.7358H21.1058V22.3413C21.1058 25.1211 22.215 26.4762 24.5028 26.4762C27.3799 26.4762 29.0437 24.4956 29.0437 21.1252V10.7358Z" fill="white"/>
<path d="M35.8194 7.43488V3.64746H37.9685V7.43488H35.8194ZM35.7847 28.0051V10.7358H37.9339V28.0051H35.7847Z" fill="white"/>
<path d="M55 28.0051H53.0242C52.8162 27.4839 52.7122 26.4415 52.6775 25.0516C51.7763 27.1711 49.9045 28.3525 47.27 28.3525C43.873 28.3525 42.1745 26.4067 42.1745 22.6888V16.0869C42.1745 12.3342 43.873 10.3884 47.27 10.3884C49.6965 10.3884 51.499 11.396 52.4696 13.2376V3.68221H54.6187V23.4185C54.6187 25.5033 54.7227 27.0322 55 28.0051ZM47.8246 26.4762C50.771 26.4762 52.4696 24.4956 52.4696 21.1252V17.6157C52.4696 14.2453 50.771 12.2647 47.8246 12.2647C45.4329 12.2647 44.3236 13.6198 44.3236 16.3996V22.3413C44.3236 25.1211 45.4329 26.4762 47.8246 26.4762Z" fill="white"/>
</svg>
